# xmcd
#
# Track frame offsets:
#	150
#	19596
#	34495
#	51570
#	68591
#	89587
#	107671
#	124763
#	142743
#	163810
#	178034
#	200251
#
# Disc length: 2890 seconds
#
# Revision: 1310756
# Processed by: cddbd v1.5.2PL0 Copyright (c) Steve Scherf et al.
# Submitted via: EZCDAudioConverter 8.5.0.1
#
DISCID=a60b480c
DTITLE=Miranda Lambert - The Weight Of These Wings
DYEAR=2016
DGENRE=Country
TTITLE0=Tin Man
TTITLE1=Good Ol' Days
TTITLE2=Things That Break
TTITLE3=For The Birds
TTITLE4=Well-Rested
TTITLE5=Tomboy
TTITLE6=To Learn Her
TTITLE7=Keeper Of The Flame
TTITLE8=Bad Boy
TTITLE9=Six Degrees Of Separation
TTITLE10=Dear Old Sun
TTITLE11=I've Got Wheels
EXTD=
EXTT0=
EXTT1=
EXTT2=
EXTT3=
EXTT4=
EXTT5=
EXTT6=
EXTT7=
EXTT8=
EXTT9=
EXTT10=
EXTT11=
PLAYORDER=
